<svg version="1.1" xmlns="http://www.w3.org/2000/svg" xmlns:xlink="http://www.w3.org/1999/xlink" width="132.55597pt" height="104.1599pt" viewBox="-72 -72 132.55597 104.1599" data-tikzjax-theme-normalized="true" class="tikzjax tikz" style="color: currentcolor;"><g stroke-miterlimit="10" transform="translate(-66.3062286376953,26.404144287109368) scale(1,-1)"><g stroke="currentColor" fill="currentColor"> <g stroke-width="0.4"> <g stroke-width="0.8"> <path d=" M 0.0 0.0 L 113.01099 0.0  " fill="none"></path> <g transform="translate(113.41098,0.0)"> <g stroke-dasharray="none" stroke-dashoffset="0.0"> <g stroke-linecap="round"> <g stroke-linejoin="round"> <path d=" M -2.56 3.12257 C -2.0923 1.24901 -1.05006 0.3643 0.0 0.0 C -1.05006 -0.3643 -2.0923 -1.24901 -2.56 -3.12257  " fill="none"></path> </g> </g> </g>  </g> <g transform="translate(117.54395,-2.15277)"> <g stroke="currentColor" fill="currentColor"> <g stroke="none" transform="scale(-1,1) translate(-66.3062286376953,26.404144287109368) scale(-1,-1)"><g fill="currentColor"> <g stroke="none"> <text alignment-baseline="baseline" y="26.404144287109368" x="-66.3062286376953" font-family="cmmi10" font-size="10" fill="currentColor" style="fill: currentcolor !important; opacity: 1 !important;"></text></g> </g> </g></g> </g> </g> <g stroke-width="0.8"> <path d=" M 0.0 0.0 L 0.0 84.55824  " fill="none"></path> <g transform="matrix(0.0,1.0,-1.0,0.0,0.0,84.95824)"> <g stroke-dasharray="none" stroke-dashoffset="0.0"> <g stroke-linecap="round"> <g stroke-linejoin="round"> <path d=" M -2.56 3.12257 C -2.0923 1.24901 -1.05006 0.3643 0.0 0.0 C -1.05006 -0.3643 -2.0923 -1.24901 -2.56 -3.12257  " fill="none"></path> </g> </g> </g>  </g> <g transform="translate(-2.6308,91.03563)"> <g stroke="currentColor" fill="currentColor"> <g stroke="none" transform="scale(-1,1) translate(-66.3062286376953,26.404144287109368) scale(-1,-1)"><g fill="currentColor"> <g stroke="none"> <text alignment-baseline="baseline" y="26.404144287109368" x="-66.3062286376953" font-family="cmmi10" font-size="10" fill="currentColor" style="fill: currentcolor !important; opacity: 1 !important;"></text></g> </g> </g></g> </g> </g> <g stroke-width="0.8"> <path d=" M 0.0 0.0 L 85.35823 56.90549  " fill="none"></path> </g> </g> </g> </g></svg>