<svg xmlns="http://www.w3.org/2000/svg" width="75" height="75" viewBox="0 0 75 75" role="img" aria-label="Broken image">
  <defs>
    <linearGradient id="imgFill" x1="14" y1="22" x2="55" y2="61" gradientUnits="userSpaceOnUse">
      <stop offset="0" stop-color="#dbeafe"/>
      <stop offset="1" stop-color="#94a3b8"/>
    </linearGradient>
    <radialGradient id="badgeFill" cx="50%" cy="35%" r="70%">
      <stop offset="0" stop-color="#ff8a80"/>
      <stop offset="1" stop-color="#e53935"/>
    </radialGradient>
    <filter id="softShadow" x="-20%" y="-20%" width="140%" height="140%">
      <feDropShadow dx="0" dy="1.5" stdDeviation="1.5" flood-color="#000000" flood-opacity="0.22"/>
    </filter>
  </defs>

  <path d="M14 11 H50 L63 24 V57 C63 61.5 60.5 64 56 64 H19 C15.5 64 12 61.5 12 57 V17 C12 13 14 11 18 11 Z"
        fill="none" stroke="#7b8791" stroke-width="3.5" stroke-linejoin="round"/>
  <path d="M50 11 V24 H63"
        fill="none" stroke="#7b8791" stroke-width="3.5" stroke-linejoin="round"/>

  <circle cx="26" cy="27" r="6.5" fill="#b8c7d6"/>

  <path d="M14 57 L29 40 L39 50 L51 36 L62 52 V57 C62 61 60 63 56 63 H19 C16 63 14 61 14 57 Z"
        fill="url(#imgFill)" opacity="0.95"/>
  <path d="M14 57 L29 40 L39 50 L51 36 L62 52"
        fill="none" stroke="#9aa8b6" stroke-width="2.5" stroke-linecap="round" stroke-linejoin="round"/>

  <circle cx="57" cy="57" r="13" fill="url(#badgeFill)" stroke="#ffffff" stroke-width="3" filter="url(#softShadow)"/>
  <path d="M51.5 51.5 L62.5 62.5 M62.5 51.5 L51.5 62.5"
        stroke="#ffffff" stroke-width="4" stroke-linecap="round"/>
</svg>
