<svg xmlns="http://www.w3.org/2000/svg" width="75" height="75" viewBox="0 0 75 75" role="img" aria-label="Broken image material">
  <defs>
    <radialGradient id="background" cx="50%" cy="45%" r="55%">
      <stop offset="0" stop-color="#f3f4f6"/>
      <stop offset="1" stop-color="#e5e7eb"/>
    </radialGradient>
    <linearGradient id="mountains" x1="17" y1="34" x2="53" y2="59" gradientUnits="userSpaceOnUse">
      <stop offset="0" stop-color="#cfd6dc"/>
      <stop offset="1" stop-color="#737b82"/>
    </linearGradient>
    <radialGradient id="badge" cx="42%" cy="35%" r="75%">
      <stop offset="0" stop-color="#fb938a"/>
      <stop offset="1" stop-color="#d93025"/>
    </radialGradient>
    <filter id="badgeShadow" x="-30%" y="-30%" width="160%" height="160%">
      <feDropShadow dx="0" dy="1.5" stdDeviation="1.4" flood-color="#000000" flood-opacity="0.25"/>
    </filter>
  </defs>

  <circle cx="37.5" cy="37.5" r="31" fill="url(#background)"/>

  <path d="M17 17 H47 L58 28 V55 H17 Z"
        fill="#f9fafb" stroke="#6b7280" stroke-width="3.2" stroke-linejoin="round"/>
  <path d="M47 17 V28 H58"
        fill="none" stroke="#6b7280" stroke-width="3.2" stroke-linejoin="round"/>

  <circle cx="27" cy="30" r="6.2" fill="#717980"/>
  <path d="M18 55 L31 41 L39 49 L48 36 L58 49 V55 Z"
        fill="url(#mountains)" opacity="0.95"/>
  <path d="M18 55 L31 41 L39 49 L48 36 L58 49"
        fill="none" stroke="#7a828a" stroke-width="2" stroke-linecap="round" stroke-linejoin="round"/>

  <circle cx="57" cy="55" r="12.5" fill="url(#badge)" stroke="#ffffff" stroke-width="3" filter="url(#badgeShadow)"/>
  <path d="M52 50 L62 60 M62 50 L52 60"
        stroke="#ffffff" stroke-width="4" stroke-linecap="round"/>
</svg>
